# xmcd
#
# Track frame offsets:
#	150
#	9642
#	20662
#	35317
#	49167
#	80300
#	88262
#	102825
#	116100
#	129975
#	148100
#	157550
#	166737
#	172575
#	190300
#	198692
#	208637
#
# Disc length: 2927 seconds
#
# Revision: 2
# Processed by: cddbd v1.5PL3 Copyright (c) Steve Scherf et al.
# Submitted via: EZCDDA 4.3.2
#
DISCID=d80b6d11
DTITLE=Johnny Cash - Live Broadcast
DYEAR=1900
DGENRE=
TTITLE0=Big River
TTITLE1=There You Go
TTITLE2=I Got A Woman
TTITLE3=I Walk The Line
TTITLE4=Johnny Cash Impersonations
TTITLE5=Hey Porter
TTITLE6=Goodbye Little Darlin' Goodbye
TTITLE7=(A) Big River (B) Get Rhythm
TTITLE8=Bandana
TTITLE9=BAllad Of The Hark Weaver
TTITLE10=Luther Played The Boogie
TTITLE11=Pickin' Time
TTITLE12=Cry, Cry, Cry
TTITLE13=Ballad Of Ira Hayes
TTITLE14=I Got Stripes
TTITLE15=Five Feet High And Rising
TTITLE16=Don't Take Your Guns To Town
EXTD=
EXTT0=
EXTT1=
EXTT2=
EXTT3=
EXTT4=
EXTT5=
EXTT6=
EXTT7=
EXTT8=
EXTT9=
EXTT10=
EXTT11=
EXTT12=
EXTT13=
EXTT14=
EXTT15=
EXTT16=
PLAYORDER=
